<svg width="177" height="54" viewBox="0 0 177 54" fill="none" xmlns="http://www.w3.org/2000/svg">
<path d="M26.352 54C22.56 54 19.056 53.352 15.84 52.056C12.624 50.712 9.81599 48.864 7.41599 46.512C5.06399 44.16 3.23999 41.424 1.94399 38.304C0.647989 35.136 -1.14441e-05 31.704 -1.14441e-05 28.008C-1.14441e-05 24.36 0.647989 20.976 1.94399 17.856C3.28799 14.688 5.15999 11.952 7.55999 9.64803C9.95999 7.29603 12.768 5.47203 15.984 4.17603C19.248 2.88003 22.752 2.23203 26.496 2.23203C29.136 2.23203 31.68 2.59203 34.128 3.31203C36.576 4.03203 38.784 5.04003 40.752 6.33603C42.72 7.63203 44.352 9.09603 45.648 10.728L39.744 16.92C38.4 15.624 37.008 14.544 35.568 13.68C34.176 12.816 32.712 12.144 31.176 11.664C29.64 11.184 28.056 10.944 26.424 10.944C24.024 10.944 21.792 11.376 19.728 12.24C17.712 13.104 15.936 14.304 14.4 15.84C12.912 17.376 11.736 19.176 10.872 21.24C10.008 23.304 9.57599 25.56 9.57599 28.008C9.57599 30.36 10.008 32.592 10.872 34.704C11.784 36.816 13.032 38.664 14.616 40.248C16.2 41.832 18.024 43.08 20.088 43.992C22.2 44.856 24.432 45.288 26.784 45.288C28.56 45.288 30.216 45.024 31.752 44.496C33.288 43.968 34.656 43.248 35.856 42.336C37.056 41.376 37.968 40.272 38.592 39.024C39.264 37.776 39.6 36.432 39.6 34.992V33.408L40.896 34.92H25.992V26.568H48.816C48.912 27.096 48.984 27.696 49.032 28.368C49.08 28.992 49.104 29.616 49.104 30.24C49.152 30.816 49.176 31.32 49.176 31.752C49.176 35.064 48.6 38.088 47.448 40.824C46.296 43.512 44.664 45.84 42.552 47.808C40.488 49.776 38.064 51.312 35.28 52.416C32.544 53.472 29.568 54 26.352 54ZM71.7469 54C68.6269 54 65.7949 53.136 63.2509 51.408C60.7069 49.68 58.6669 47.328 57.1309 44.352C55.5949 41.376 54.8269 37.992 54.8269 34.2C54.8269 30.408 55.5949 27.024 57.1309 24.048C58.6669 21.072 60.7549 18.744 63.3949 17.064C66.0349 15.384 69.0109 14.544 72.3229 14.544C74.2429 14.544 75.9949 14.832 77.5789 15.408C79.1629 15.936 80.5549 16.704 81.7549 17.712C82.9549 18.72 83.9389 19.872 84.7069 21.168C85.5229 22.464 86.0749 23.856 86.3629 25.344L84.4189 24.84V15.336H93.3469V53.28H84.3469V44.208L86.4349 43.848C86.0989 45.144 85.4749 46.416 84.5629 47.664C83.6989 48.864 82.5949 49.944 81.2509 50.904C79.9549 51.816 78.4909 52.56 76.8589 53.136C75.2749 53.712 73.5709 54 71.7469 54ZM74.1949 46.152C76.2589 46.152 78.0829 45.648 79.6669 44.64C81.2509 43.632 82.4749 42.24 83.3389 40.464C84.2509 38.64 84.7069 36.552 84.7069 34.2C84.7069 31.896 84.2509 29.856 83.3389 28.08C82.4749 26.304 81.2509 24.912 79.6669 23.904C78.0829 22.896 76.2589 22.392 74.1949 22.392C72.1309 22.392 70.3069 22.896 68.7229 23.904C67.1869 24.912 65.9869 26.304 65.1229 28.08C64.2589 29.856 63.8269 31.896 63.8269 34.2C63.8269 36.552 64.2589 38.64 65.1229 40.464C65.9869 42.24 67.1869 43.632 68.7229 44.64C70.3069 45.648 72.1309 46.152 74.1949 46.152ZM124.566 54C122.886 54 121.23 53.76 119.598 53.28C118.014 52.752 116.574 52.056 115.278 51.192C113.982 50.328 112.902 49.368 112.038 48.312C111.174 47.208 110.598 46.104 110.31 45L112.398 44.064L112.182 53.136H103.614V2.86102e-05H112.47V24.12L110.886 23.4C111.126 22.248 111.654 21.168 112.47 20.16C113.334 19.104 114.39 18.168 115.638 17.352C116.886 16.488 118.254 15.816 119.742 15.336C121.23 14.808 122.742 14.544 124.278 14.544C127.686 14.544 130.686 15.384 133.278 17.064C135.918 18.744 137.982 21.072 139.47 24.048C141.006 27.024 141.774 30.408 141.774 34.2C141.774 38.04 141.03 41.448 139.542 44.424C138.054 47.4 135.99 49.752 133.35 51.48C130.758 53.16 127.83 54 124.566 54ZM122.694 46.224C124.71 46.224 126.51 45.72 128.094 44.712C129.678 43.656 130.926 42.24 131.838 40.464C132.75 38.64 133.206 36.552 133.206 34.2C133.206 31.896 132.75 29.856 131.838 28.08C130.974 26.304 129.75 24.912 128.166 23.904C126.582 22.896 124.758 22.392 122.694 22.392C120.63 22.392 118.806 22.896 117.222 23.904C115.638 24.912 114.39 26.304 113.478 28.08C112.566 29.856 112.11 31.896 112.11 34.2C112.11 36.552 112.566 38.64 113.478 40.464C114.39 42.24 115.638 43.656 117.222 44.712C118.806 45.72 120.63 46.224 122.694 46.224ZM162.341 54C158.981 54 155.957 53.448 153.269 52.344C150.629 51.192 148.469 49.56 146.789 47.448L152.549 42.48C153.989 44.112 155.597 45.288 157.373 46.008C159.149 46.728 161.021 47.088 162.989 47.088C163.805 47.088 164.525 46.992 165.149 46.8C165.821 46.608 166.397 46.32 166.877 45.936C167.357 45.552 167.717 45.12 167.957 44.64C168.245 44.112 168.389 43.536 168.389 42.912C168.389 41.76 167.957 40.848 167.093 40.176C166.613 39.84 165.845 39.48 164.789 39.096C163.781 38.712 162.461 38.328 160.829 37.944C158.237 37.272 156.077 36.504 154.349 35.64C152.621 34.728 151.277 33.72 150.317 32.616C149.501 31.704 148.877 30.672 148.445 29.52C148.061 28.368 147.869 27.12 147.869 25.776C147.869 24.096 148.229 22.584 148.949 21.24C149.717 19.848 150.749 18.648 152.045 17.64C153.341 16.632 154.853 15.864 156.581 15.336C158.309 14.808 160.109 14.544 161.981 14.544C163.901 14.544 165.749 14.784 167.525 15.264C169.349 15.744 171.029 16.44 172.565 17.352C174.149 18.216 175.493 19.272 176.597 20.52L171.701 25.92C170.789 25.056 169.781 24.288 168.677 23.616C167.621 22.944 166.541 22.416 165.437 22.032C164.333 21.6 163.301 21.384 162.341 21.384C161.429 21.384 160.613 21.48 159.893 21.672C159.173 21.816 158.573 22.056 158.093 22.392C157.613 22.728 157.229 23.16 156.941 23.688C156.701 24.168 156.581 24.744 156.581 25.416C156.629 25.992 156.773 26.544 157.013 27.072C157.301 27.552 157.685 27.96 158.165 28.296C158.693 28.632 159.485 29.016 160.541 29.448C161.597 29.88 162.965 30.288 164.645 30.672C166.997 31.296 168.965 31.992 170.549 32.76C172.133 33.528 173.381 34.416 174.293 35.424C175.205 36.288 175.853 37.296 176.237 38.448C176.621 39.6 176.813 40.872 176.813 42.264C176.813 44.52 176.165 46.536 174.869 48.312C173.621 50.088 171.893 51.48 169.685 52.488C167.525 53.496 165.077 54 162.341 54Z" fill="#9333EA"/>
</svg>
